<?xml version="1.0" encoding="utf-8"?>
<!-- Generator: Adobe Illustrator 21.1.0, SVG Export Plug-In . SVG Version: 6.00 Build 0)  -->
<svg version="1.1" id="Layer_1" xmlns="http://www.w3.org/2000/svg" xmlns:xlink="http://www.w3.org/1999/xlink" x="0px" y="0px"
	 viewBox="0 0 180 180" style="enable-background:new 0 0 180 180;" xml:space="preserve">
<style type="text/css">
	.st0{fill:#FFFFFF;}
	.st1{fill:none;stroke:#FFFFFF;stroke-width:3;stroke-miterlimit:10;}
	.st2{fill:none;stroke:#FFFFFF;stroke-miterlimit:10;}
	.st3{fill:none;stroke:#FFFFFF;stroke-width:0.5;stroke-miterlimit:10;}
	.st4{fill:none;stroke:#FFFFFF;stroke-width:0.5;stroke-miterlimit:10;stroke-dasharray:0.9002,0.9002;}
	.st5{fill:none;stroke:#FFFFFF;stroke-width:0.5;stroke-miterlimit:10;stroke-dasharray:0.9309,0.9309;}
	.st6{fill:none;stroke:#FFFFFF;stroke-width:0.5;stroke-miterlimit:10;stroke-dasharray:1.0381,1.0381;}
	.st7{fill:none;stroke:#FFFFFF;stroke-width:0.5;stroke-miterlimit:10;stroke-dasharray:0.9746,0.9746;}
	.st8{fill:none;stroke:#FFFFFF;stroke-width:0.5;stroke-miterlimit:10;stroke-dasharray:1;}
	.st9{stroke:#FFFFFF;stroke-width:0.5;stroke-miterlimit:10;stroke-dasharray:1;}
	.st10{fill:none;stroke:#FFFFFF;stroke-width:2;stroke-miterlimit:10;}
	.st11{fill:none;stroke:#FFFFFF;stroke-width:0.5;stroke-miterlimit:10;stroke-dasharray:0.9286,0.9286;}
	.st12{fill:none;stroke:#FFFFFF;stroke-width:0.5;stroke-miterlimit:10;stroke-dasharray:1.2194,1.2194;}
	.st13{fill:none;stroke:#FFFFFF;stroke-width:0.5;stroke-miterlimit:10;stroke-dasharray:1.0263,1.0263;}
	.st14{fill:none;stroke:#FFFFFF;stroke-width:0.5;stroke-miterlimit:10;stroke-dasharray:0.7448,0.7448;}
	.st15{fill:none;stroke:#FFFFFF;stroke-width:0.5;stroke-miterlimit:10;stroke-dasharray:0.9631,0.9631;}
	.st16{fill:none;stroke:#FFFFFF;stroke-width:0.5;stroke-miterlimit:10;stroke-dasharray:0.9989,0.9989;}
	.st17{fill:none;stroke:#FFFFFF;stroke-width:0.5;stroke-miterlimit:10;stroke-dasharray:1.0967,1.0967;}
	.st18{fill:none;stroke:#FFFFFF;stroke-width:0.5;stroke-miterlimit:10;stroke-dasharray:1.0147,1.0147;}
	.st19{fill:none;stroke:#FFFFFF;stroke-width:0.5;stroke-miterlimit:10;stroke-dasharray:1.0458,1.0458;}
	.st20{fill:none;stroke:#FFFFFF;stroke-width:5;stroke-miterlimit:10;}
	.st21{stroke:#FFFFFF;stroke-width:5;stroke-miterlimit:10;}
	.st22{fill:#00A79D;}
	.st23{fill:#FFF200;}
	.st24{fill:#8DC63F;}
	.st25{fill:#F7941D;}
	.st26{fill:#27AAE1;}
	.st27{fill:#77491D;}
	.st28{fill:#785833;}
	.st29{fill:#C37629;}
	.st30{fill:#F7B768;}
	.st31{fill:#BCBEC0;}
	.st32{fill:#F9ED32;}
	.st33{fill:#39B54A;}
	.st34{fill:url(#);}
	.st35{fill:#D7DF23;}
	.st36{fill:#FBB040;}
	.st37{fill:#6DC2E6;}
	.st38{fill:#16171A;}
	.st39{fill:#009444;}
	.st40{fill:none;stroke:#FFFFFF;stroke-width:8;stroke-miterlimit:10;}
	.st41{fill:none;stroke:#000000;stroke-width:8;stroke-miterlimit:10;}
	.st42{fill:none;stroke:#000000;stroke-width:7.1389;stroke-miterlimit:10;}
	.st43{fill:none;stroke:#000000;stroke-width:6.2778;stroke-miterlimit:10;}
	.st44{fill:none;stroke:#000000;stroke-width:5.4167;stroke-miterlimit:10;}
	.st45{fill:none;stroke:#000000;stroke-width:4.5556;stroke-miterlimit:10;}
	.st46{fill:none;stroke:#000000;stroke-width:3.6944;stroke-miterlimit:10;}
	.st47{fill:none;stroke:#000000;stroke-width:2.8333;stroke-miterlimit:10;}
	.st48{fill:none;stroke:#000000;stroke-width:1.9722;stroke-miterlimit:10;}
	.st49{fill:none;stroke:#000000;stroke-width:1.1111;stroke-miterlimit:10;}
	.st50{fill:none;stroke:#000000;stroke-width:0.25;stroke-miterlimit:10;}
	.st51{fill:none;stroke:#000000;stroke-width:4.225;stroke-miterlimit:10;}
	.st52{fill:none;stroke:#000000;stroke-width:8.2;stroke-miterlimit:10;}
	.st53{fill:none;stroke:#000000;stroke-width:12.175;stroke-miterlimit:10;}
	.st54{fill:none;stroke:#000000;stroke-width:16.15;stroke-miterlimit:10;}
	.st55{fill:none;stroke:#000000;stroke-width:20.125;stroke-miterlimit:10;}
	.st56{fill:none;stroke:#000000;stroke-width:24.1;stroke-miterlimit:10;}
	.st57{fill:none;stroke:#000000;stroke-width:28.075;stroke-miterlimit:10;}
	.st58{fill:none;stroke:#000000;stroke-width:32.05;stroke-miterlimit:10;}
	.st59{fill:none;stroke:#000000;stroke-width:36.025;stroke-miterlimit:10;}
	.st60{fill:none;stroke:#000000;stroke-width:40;stroke-miterlimit:10;}
</style>
<g>
	<g id="XMLID_70_">
		<g>
			<path class="st38" d="M89.9,67.7c12.1,0,22,9.8,22,22c0,12.1-9.8,22-22,22c-12.1,0-22-9.8-22-22C67.9,77.5,77.8,67.7,89.9,67.7z"
				/>
			<path class="st38" d="M115.5,85.4c-0.9-5.7-3.7-10.7-7.7-14.5c-1.1-1-1.3-2.7-0.4-4l13.2-20c1-1.5,3.2-1.9,4.6-0.7
				c11.4,9.3,19.2,23,20.6,38.4c0.2,1.8-1.3,3.4-3.2,3.4h-24C117.1,88,115.8,86.9,115.5,85.4z"/>
			<path class="st38" d="M90,4c47.3,0,85.7,38.4,85.7,85.7s-38.4,85.7-85.7,85.7S4.3,137,4.3,89.6S42.7,4,90,4z M161,90.6
				c0-0.9,0-1.8,0-2.6c-0.8-23.6-12.6-45.5-32-59.2c-0.7-0.5-1.8-0.3-2.3,0.4v0c-0.5,0.7-0.3,1.7,0.4,2.2
				c18.1,12.8,29.2,33,30.5,54.9c0.1,0.9-0.7,1.7-1.6,1.7h-4.5c-0.9,0-1.6-0.7-1.6-1.5c-1-18.9-10.7-35.4-25.2-45.7
				c-9.8-7-21.8-11.1-34.7-11.1c-12.4,0-23.9,3.8-33.5,10.2C41.3,50.1,31.1,67.1,30.1,86.4c0,0.9-0.7,1.5-1.6,1.5h-4.8
				c-0.9,0-1.7-0.8-1.6-1.7C23.4,64.6,34.3,44.6,52,31.8c0.7-0.5,0.9-1.5,0.4-2.2v0c-0.5-0.7-1.5-0.9-2.3-0.4
				c-19.7,14.2-31.4,37-31.4,61.4c0,25.7,12.8,49.3,34.3,63.4c0.7,0.5,1.8,0.3,2.2-0.5c0.2-0.3,0.2-0.6,0.2-0.8c0-0.5-0.3-1-0.7-1.4
				C35.1,138.3,23,117.1,22.1,93.7c0-0.9,0.7-1.7,1.6-1.7h4.8c0.9,0,1.5,0.7,1.6,1.5c2,30.6,26.9,55,57.7,56.1c0.7,0,1.4,0,2.2,0
				c31.8,0,57.9-24.8,59.9-56.1c0.1-0.9,0.7-1.5,1.6-1.5h4.6c0.9,0,1.6,0.8,1.6,1.7c-0.9,22-11.9,42.5-29.8,55.5
				c-0.7,0.5-0.9,1.5-0.4,2.2c0.3,0.5,0.8,0.7,1.3,0.7c0.3,0,0.7-0.1,0.9-0.3C149.4,137.5,161,114.8,161,90.6z"/>
			<path class="st38" d="M74.8,65.4L60.7,45.9c-1.1-1.5-0.7-3.6,0.9-4.6c8.3-4.9,18-7.7,28.3-7.7c9.4,0,18.3,2.3,26.1,6.5
				c1.6,0.9,2.1,3,1.1,4.5l-13.2,20c-0.8,1.3-2.4,1.8-3.8,1.2c-3.1-1.3-6.6-2.1-10.2-2.1c-4,0-7.9,0.9-11.3,2.6
				C77.3,67,75.7,66.6,74.8,65.4z"/>
			<path class="st38" d="M94.6,115.1c10.5-1.9,18.8-10.1,20.8-20.5c0.3-1.5,1.6-2.6,3.1-2.6h24c1.9,0,3.4,1.6,3.2,3.4
				c-2.7,26.4-23.9,47.4-50.4,49.9c-1.8,0.2-3.4-1.3-3.4-3.2v-24C91.9,116.7,93,115.4,94.6,115.1z"/>
			<path class="st38" d="M34.2,84.6C35.5,70,42.5,57,52.9,47.8c1.4-1.2,3.6-1,4.7,0.5l14.1,19.4c0.9,1.2,0.8,2.9-0.2,4
				c-3.5,3.7-6,8.4-6.9,13.6C64.2,86.8,63,88,61.4,88h-24C35.6,88,34.1,86.4,34.2,84.6z"/>
			<path class="st38" d="M84.5,145.4c-26.4-2.6-47.4-23.6-50.2-49.9c-0.2-1.8,1.3-3.4,3.2-3.4h24c1.5,0,2.8,1.1,3.1,2.6
				c2,10.4,10.3,18.5,20.7,20.5c1.5,0.3,2.6,1.6,2.6,3.1v24C87.9,144.1,86.3,145.6,84.5,145.4z"/>
		</g>
	</g>
</g>
</svg>
